HIERARCHY
ROOT Hips
{
 OFFSET 0.000000 0.000000 0.000000
 CHANNELS 6 Xposition Yposition Zposition Yrotation Xrotation Zrotation
 JOINT Chest
 {
  OFFSET 0.000000 10.383400 0.001500
  CHANNELS 3 Yrotation Xrotation Zrotation
  JOINT Chest2
  {
   OFFSET 0.000000 10.418200 -0.003100
   CHANNELS 3 Yrotation Xrotation Zrotation
   JOINT Chest3
   {
    OFFSET 0.000000 10.375100 0.000000
    CHANNELS 3 Yrotation Xrotation Zrotation
    JOINT Chest4
    {
     OFFSET 0.000000 10.364600 0.000000
     CHANNELS 3 Yrotation Xrotation Zrotation
     JOINT Neck
     {
      OFFSET 0.000000 15.642200 0.000000
      CHANNELS 3 Yrotation Xrotation Zrotation
      JOINT Head
      {
       OFFSET 0.000000 9.697300 -0.006500
       CHANNELS 3 Yrotation Xrotation Zrotation
       End Site
       {
        OFFSET 0.000000 18.492200 -0.003400
       }
      }
     }
     JOINT RightCollar
     {
      OFFSET -3.166800 10.349300 0.000000
      CHANNELS 3 Yrotation Xrotation Zrotation
      JOINT RightShoulder
      {
       OFFSET -14.729700 0.000000 0.000000
       CHANNELS 3 Yrotation Xrotation Zrotation
       JOINT RightElbow
       {
        OFFSET 0.000000 -32.224300 0.000000
        CHANNELS 3 Yrotation Xrotation Zrotation
        JOINT RightWrist
        {
         OFFSET 0.000000 -26.084100 0.000000
         CHANNELS 3 Yrotation Xrotation Zrotation
         End Site
         {
          OFFSET 0.000000 -19.319400 0.000000
         }
        }
       }
      }
     }
     JOINT LeftCollar
     {
      OFFSET 3.166800 10.349300 0.000000
      CHANNELS 3 Yrotation Xrotation Zrotation
      JOINT LeftShoulder
      {
       OFFSET 14.729700 0.000000 0.000000
       CHANNELS 3 Yrotation Xrotation Zrotation
       JOINT LeftElbow
       {
        OFFSET 0.000000 -32.224300 0.000000
        CHANNELS 3 Yrotation Xrotation Zrotation
        JOINT LeftWrist
        {
         OFFSET 0.000000 -26.084100 0.000000
         CHANNELS 3 Yrotation Xrotation Zrotation
         End Site
         {
          OFFSET 0.000000 -19.319400 0.000000
         }
        }
       }
      }
     }
    }
   }
  }
 }
 JOINT RightHip
 {
  OFFSET -8.428900 -0.007500 -0.000800
  CHANNELS 3 Yrotation Xrotation Zrotation
  JOINT RightKnee
  {
   OFFSET 0.000000 -43.834600 0.000700
   CHANNELS 3 Yrotation Xrotation Zrotation
   JOINT RightAnkle
   {
    OFFSET 0.000000 -42.757000 0.001200
    CHANNELS 3 Yrotation Xrotation Zrotation
    JOINT RightToe
    {
     OFFSET 0.000000 -6.946900 15.649300
     CHANNELS 3 Yrotation Xrotation Zrotation
     End Site
     {
      OFFSET 0.000000 -1.580800 6.825800
     }
    }
   }
  }
 }
 JOINT LeftHip
 {
  OFFSET 8.428900 -0.007500 -0.000800
  CHANNELS 3 Yrotation Xrotation Zrotation
  JOINT LeftKnee
  {
   OFFSET 0.000000 -43.834600 0.000700
   CHANNELS 3 Yrotation Xrotation Zrotation
   JOINT LeftAnkle
   {
    OFFSET 0.000000 -42.757000 0.001200
    CHANNELS 3 Yrotation Xrotation Zrotation
    JOINT LeftToe
    {
     OFFSET 0.000000 -6.946900 15.649300
     CHANNELS 3 Yrotation Xrotation Zrotation
     End Site
     {
      OFFSET 0.000000 -1.580800 6.825800
     }
    }
   }
  }
 }
}
MOTION
Frames: 12
Frame Time: 0.008333
0.000000 93.354300 0.000000 0.000000 -5.767877 0.000000 0.000000 11.653817 0.000000 0.000000 -5.885947 0.000000 0.000000 -0.000000 0.000000 0.000000 -0.000000 0.000000 0.000000 12.528835 0.000000 0.000000 0.711642 0.000000 0.000000 -0.000000 0.000000 0.000000 0.000000 -90.000000 0.000000 -2.309062 0.000000 0.000000 2.309062 0.000000 0.000000 -0.000000 0.000000 0.000000 -0.000000 90.000000 0.000000 -2.309062 0.000000 0.000000 2.309062 0.000000 0.000000 8.520406 0.000000 0.000000 1.905762 0.000000 -0.000000 -4.658285 0.000000 0.000000 -0.000000 0.000000 0.000000 8.520406 0.000000 0.000000 1.905762 0.000000 -0.000000 -4.658285 0.000000 0.000000 -0.000000 0.000000
0.844013 151.258624 -8.599755 173.632426 -16.225127 -2.964386 -0.918979 15.652164 1.637869 -0.107725 1.504587 0.165446 -0.169126 2.527636 0.268066 -0.841049 13.906690 1.440875 -1.981875 14.436084 0.934873 -2.271613 -10.555030 1.405605 2.530098 -5.467854 -2.372660 17.758495 -18.840727 -6.454388 38.392597 -41.978021 -15.617352 18.368591 4.521496 -32.131802 -2.177858 -4.060882 2.287419 -1.536665 -17.660580 1.948097 -23.547454 -52.773065 1.982572 -12.996030 2.682687 25.095941 8.424238 -55.120094 5.425118 -41.352054 81.409966 -38.152572 -5.978814 -19.158621 4.750981 -0.004729 0.014922 -0.002654 -0.810357 -56.535402 -2.229156 109.460693 79.315414 114.769971 9.133092 -6.970203 -6.077957 0.014044 -3.234810 -0.567442
0.374500 143.322756 -7.805744 173.641230 -16.217627 -2.955278 -0.920839 15.647773 1.621885 -0.103878 1.506550 0.159557 -0.177849 2.523696 0.277443 -0.840088 13.906586 1.438351 -1.975765 14.475134 0.925519 -2.264204 -10.452027 1.394929 2.539472 -5.492082 -2.386853 17.784341 -18.837181 -6.453198 38.323359 -41.956766 -15.574176 18.372516 4.514074 -32.141384 -2.177576 -4.083147 2.285078 -1.528956 -17.657181 1.947010 -23.507561 -52.739681 1.922847 -13.017860 2.665005 25.119250 8.458960 -55.131870 5.388733 -41.399021 81.413825 -38.191224 -5.987352 -19.148141 4.755663 -0.002227 0.006289 -0.000989 -0.801721 -56.545231 -2.249370 109.470440 79.313258 114.778984 9.125400 -6.975466 -6.076544 0.002237 -0.006422 0.000993
-0.011295 136.787337 -7.152237 173.643279 -16.212364 -2.950495 -0.921317 15.647249 1.608545 -0.107539 1.503706 0.163787 -0.173835 2.522300 0.278790 -0.840165 13.905897 1.435836 -1.975260 14.563739 0.910334 -2.259610 -10.423637 1.403787 2.548203 -5.521597 -2.399217 17.799720 -18.828875 -6.455087 38.256705 -41.935970 -15.507607 18.376555 4.507651 -32.166794 -2.176706 -4.117952 2.275608 -1.529445 -17.642074 1.959371 -23.497367 -52.714404 1.884812 -13.018688 2.656536 25.144776 8.479872 -55.136507 5.368997 -41.404753 81.413452 -38.191587 -5.989884 -19.141830 4.756787 -0.001397 0.001157 -0.000620 -0.795128 -56.552606 -2.254963 109.486162 79.316827 114.792374 9.122577 -6.978354 -6.075503 0.002592 -0.003963 0.001150
-0.289940 132.067165 -6.680700 173.646021 -16.207432 -2.946465 -0.926629 15.643577 1.601795 -0.108129 1.502974 0.163442 -0.176809 2.523058 0.274059 -0.848552 13.900783 1.427180 -1.960414 14.618986 0.916840 -2.255962 -10.423918 1.405436 2.569628 -5.554043 -2.405310 17.828768 -18.822784 -6.470951 38.162764 -41.909648 -15.405091 18.377766 4.506496 -32.203973 -2.158905 -4.158880 2.264484 -1.541479 -17.622923 1.987754 -23.479827 -52.683052 1.833732 -13.015090 2.651168 25.174413 8.489926 -55.141003 5.357072 -41.401081 81.414715 -38.186772 -5.995254 -19.130081 4.753648 -0.002671 0.000697 -0.001186 -0.791097 -56.560905 -2.258074 109.477775 79.316004 114.781077 9.105352 -6.972105 -6.068796 0.000161 -0.004038 0.000072
-0.466614 129.085704 -6.383523 173.650700 -16.201652 -2.939735 -0.934024 15.638746 1.592921 -0.108102 1.501654 0.163848 -0.178663 2.524232 0.272128 -0.852512 13.895612 1.424863 -1.953468 14.663612 0.917468 -2.254527 -10.411030 1.404703 2.579819 -5.592315 -2.421380 17.834930 -18.799361 -6.459495 38.114131 -41.888243 -15.336188 18.395122 4.494701 -32.235577 -2.147665 -4.190667 2.246526 -1.562398 -17.621093 2.025950 -23.439532 -52.651241 1.775132 -13.015741 2.638028 25.198238 8.519239 -55.149640 5.327286 -41.431954 81.420303 -38.208550 -6.001155 -19.125376 4.753757 -0.002903 -0.001207 -0.001289 -0.771844 -56.569018 -2.275279 109.494566 79.322784 114.798582 9.085703 -6.970213 -6.052194 -0.003587 -0.003872 -0.001592
-0.564154 127.445713 -6.221482 173.655621 -16.197584 -2.932763 -0.942105 15.633242 1.584175 -0.107464 1.501590 0.164227 -0.179511 2.521193 0.272103 -0.853134 13.898203 1.423661 -1.951736 14.679224 0.917357 -2.234341 -10.199930 1.397991 2.582466 -5.624909 -2.436082 17.845912 -18.785464 -6.456847 38.071479 -41.878918 -15.289271 18.437481 4.488802 -32.246070 -2.144255 -4.226964 2.227126 -1.592044 -17.627938 2.075083 -23.372527 -52.612196 1.694561 -13.019483 2.629004 25.224169 8.539542 -55.155480 5.305519 -41.487264 81.423334 -38.259855 -6.005327 -19.125882 4.754985 -0.004190 -0.002425 -0.001860 -0.761084 -56.574239 -2.290775 109.499059 79.324859 114.796666 9.091281 -6.966196 -6.043914 -0.006701 -0.004666 -0.002975
-0.609840 126.664251 -6.144818 173.659612 -16.186798 -2.932695 -0.951524 15.620590 1.581261 -0.108211 1.500220 0.162067 -0.175241 2.523885 0.271874 -0.857928 13.893005 1.420457 -1.941213 14.748169 0.920107 -2.210814 -10.073791 1.403288 2.588670 -5.630577 -2.436452 17.965430 -18.845017 -6.594495 37.912216 -41.806314 -15.008978 18.433067 4.475201 -32.393734 -2.138899 -4.265009 2.209965 -1.633681 -17.642949 2.137259 -23.315885 -52.521074 1.547870 -13.003686 2.593157 25.336140 8.547797 -55.170910 5.301525 -41.548791 81.425364 -38.317383 -6.013387 -19.125066 4.754630 -0.001607 -0.005124 -0.000713 -0.759431 -56.585267 -2.293940 109.508415 79.325975 114.809513 9.083974 -6.965070 -6.041552 -0.006638 -0.005232 -0.002946
-0.628657 126.344344 -6.115741 173.659404 -16.179190 -2.929207 -0.958981 15.610851 1.575334 -0.114965 1.493249 0.161732 -0.168035 2.523125 0.271678 -0.887801 13.853057 1.410809 -1.892191 14.938007 0.934238 -2.188569 -10.036571 1.404243 2.615277 -5.634740 -2.450797 18.088013 -18.867866 -6.719998 37.776797 -41.738035 -14.740262 18.431418 4.464048 -32.539552 -2.107800 -4.272512 2.182971 -1.694344 -17.661441 2.220027 -23.213986 -52.409891 1.365740 -12.999790 2.557379 25.444757 8.558815 -55.181944 5.294979 -41.575631 81.432088 -38.343127 -6.022444 -19.127144 4.755727 -0.001699 -0.007276 -0.000754 -0.750188 -56.591340 -2.302563 109.515467 79.327663 114.820446 9.092613 -6.962303 -6.048763 -0.003146 -0.006124 -0.001396
-0.634576 126.231385 -6.102549 173.649312 -16.139673 -2.930250 -0.952667 15.570470 1.578834 -0.132886 1.482255 0.163748 -0.170566 2.512057 0.266733 -0.900270 13.831299 1.413289 -1.853370 15.058702 0.938126 -2.149065 -9.911002 1.399575 2.623059 -5.730474 -2.490601 18.233837 -18.822369 -6.825788 37.613871 -41.662224 -14.433526 18.439697 4.447048 -32.711709 -2.076923 -4.309009 2.139700 -1.779556 -17.679884 2.328268 -23.053118 -52.264805 1.129559 -12.988203 2.496465 25.590099 8.571433 -55.224204 5.290460 -41.550858 81.437755 -38.319250 -6.006627 -19.128803 4.746566 -0.000090 -0.006136 -0.000040 -0.746755 -56.629742 -2.296793 109.512502 79.329128 114.818810 9.112227 -6.958454 -6.051762 0.000978 -0.003302 0.000434
-0.636832 126.198289 -6.101115 173.646919 -16.118099 -2.926997 -0.997164 15.535612 1.571906 -0.120535 1.479576 0.163077 -0.179926 2.495434 0.266593 -0.885502 13.838850 1.405800 -1.828824 15.168973 0.950203 -2.094022 -9.763668 1.382723 2.619879 -5.845136 -2.514523 18.407217 -18.803249 -6.993686 37.389548 -41.553664 -14.020497 18.438998 4.415615 -32.946723 -2.059815 -4.394785 2.092555 -1.887920 -17.702441 2.462387 -22.840790 -52.065703 0.825009 -12.966266 2.396313 25.796802 8.597313 -55.250131 5.278842 -41.569707 81.448753 -38.337365 -6.024514 -19.131047 4.754049 0.000049 -0.008382 0.000022 -0.740466 -56.648622 -2.302747 109.504636 79.331611 114.811892 9.114805 -6.957218 -6.049585 -0.000079 -0.005182 -0.000035
-0.637989 126.189979 -6.101568 173.648154 -16.091897 -2.924785 -1.043996 15.493658 1.570577 -0.097010 1.486620 0.155262 -0.213534 2.464680 0.275790 -0.866059 13.850607 1.393693 -1.804163 15.242744 0.948576 -2.017170 -9.541649 1.362073 2.638093 -5.973902 -2.532688 18.585119 -18.812097 -7.214234 37.090470 -41.393533 -13.470410 18.426747 4.362849 -33.248267 -2.036652 -4.513904 2.031777 -2.016883 -17.739364 2.622430 -22.586434 -51.786742 0.442467 -12.934585 2.229278 26.092504 8.606861 -55.278000 5.279268 -41.560128 81.456824 -38.339244 -6.045203 -19.130837 4.766273 -0.002555 -0.011036 -0.001134 -0.738999 -56.668361 -2.309321 109.486580 79.335238 114.795707 9.120600 -6.960274 -6.052276 -0.000053 -0.005037 -0.000023
